<svg xmlns="http://www.w3.org/2000/svg" width="112" height="110" fill="none" viewBox="0 0 112 110"><path fill="url(#a)" d="M10.525 5h60.156v40.625H10.525z"/><path fill="url(#b)" d="M45.682 58.906h60.156v40.625H45.682z"/><path fill="url(#c)" d="M75.673 46.406c.792 0 1.08 1.044.402 1.451l-5.209 3.125a.8.8 0 0 1-.402.112H10.741a.8.8 0 0 1-.402-.112l-5.208-3.125c-.68-.407-.39-1.45.402-1.45h29.992v1.562h10.937v-1.563z" opacity=".7"/><path fill="url(#d)" fill-rule="evenodd" d="M104.876 100.312c1.014.001 1.384 1.336.515 1.858l-4.48 2.687a1 1 0 0 1-.514.143h-51.79a1 1 0 0 1-.514-.143l-4.48-2.687c-.87-.522-.5-1.858.515-1.858h25.296v1.563H80.36v-1.563z" clip-rule="evenodd" opacity=".7"/><path fill="#fff" d="M35.525 46.406h10.938v1.563H35.525zm33.899 53.906h10.938v1.563H69.424z"/><path fill="url(#e)" d="M58.963 12.031c21.573 0 39.062 17.49 39.062 39.063a38.9 38.9 0 0 1-7.153 22.534l-.562-.562a38.1 38.1 0 0 0 6.934-21.972c0-21.142-17.14-38.281-38.281-38.281a38.1 38.1 0 0 0-21.974 6.932l-.561-.561a38.9 38.9 0 0 1 22.535-7.153"/><path stroke="#fff" d="m37.088 15.938-.39 3.515 3.515.781"/><path fill="url(#f)" d="M58.961 90.034c-21.573 0-39.062-17.489-39.062-39.062a38.9 38.9 0 0 1 7.153-22.534l.561.561a38.1 38.1 0 0 0-6.933 21.973c0 21.142 17.139 38.28 38.281 38.28a38.1 38.1 0 0 0 21.974-6.932l.561.562a38.9 38.9 0 0 1-22.535 7.152"/><path stroke="#fff" d="m80.838 86.128.39-3.516-3.515-.78"/><defs><linearGradient id="a" x1="70.682" x2="10.525" y1="25.313" y2="25.313" gradientUnits="userSpaceOnUse"><stop stop-color="#fff"/><stop offset="1" stop-color="#fff" stop-opacity="0"/></linearGradient><linearGradient id="b" x1="105.838" x2="45.682" y1="79.219" y2="79.219" gradientUnits="userSpaceOnUse"><stop stop-color="#fff" stop-opacity="0"/><stop offset="1" stop-color="#fff"/></linearGradient><linearGradient id="c" x1="40.602" x2="40.602" y1="46.406" y2="51.094" gradientUnits="userSpaceOnUse"><stop stop-color="#fff"/><stop offset="1" stop-color="#fff" stop-opacity="0"/></linearGradient><linearGradient id="d" x1="74.502" x2="74.502" y1="100.312" y2="105" gradientUnits="userSpaceOnUse"><stop stop-color="#fff"/><stop offset="1" stop-color="#fff" stop-opacity="0"/></linearGradient><linearGradient id="e" x1="36.306" x2="96.853" y1="19.453" y2="63.594" gradientUnits="userSpaceOnUse"><stop stop-color="#fff"/><stop offset="1" stop-color="#fff" stop-opacity="0"/></linearGradient><linearGradient id="f" x1="81.617" x2="21.07" y1="82.612" y2="38.472" gradientUnits="userSpaceOnUse"><stop stop-color="#fff"/><stop offset="1" stop-color="#fff" stop-opacity="0"/></linearGradient></defs></svg>