<svg xmlns="http://www.w3.org/2000/svg" width="111" height="110" fill="none" viewBox="0 0 111 110"><path fill="url(#a)" d="M55.2 10q1.745 0 3.457.13.323.353.64.71a45 45 0 0 0-4.098-.188c-24.492 0-44.348 19.855-44.348 44.348S30.707 99.348 55.2 99.348q2.074-.001 4.098-.188-.317.357-.64.709A46 46 0 0 1 55.2 100c-24.853 0-45-20.147-45-45s20.147-45 45-45m4.412.214C82.394 12.431 100.199 31.636 100.199 55S82.394 97.568 59.612 99.785q.321-.36.638-.722C82.364 96.555 99.547 77.785 99.547 55S82.364 13.444 60.25 10.937q-.317-.364-.638-.723m-.315.625q.478.045.953.098C70.509 22.732 76.72 38.14 76.72 55s-6.211 32.268-16.47 44.063q-.476.053-.953.097C69.731 87.414 76.069 71.947 76.069 55S69.73 22.586 59.297 10.84"/><path fill="url(#b)" d="M55.2 10q-1.746 0-3.458.13-.324.353-.64.71a45 45 0 0 1 4.097-.188c24.493 0 44.348 19.855 44.348 44.348S79.692 99.348 55.199 99.348q-2.072-.001-4.097-.188.316.357.64.709 1.711.13 3.457.131c24.853 0 45-20.147 45-45s-20.147-45-45-45m-4.413.214C28.005 12.431 10.199 31.636 10.199 55s17.806 42.568 40.588 44.785a68 68 0 0 1-.638-.722C28.034 96.555 10.85 77.785 10.85 55s17.184-41.556 39.3-44.063q.315-.364.638-.723m.315.625q-.48.045-.953.098C39.889 22.732 33.678 38.14 33.678 55s6.212 32.268 16.47 44.063q.476.053.953.097C40.668 87.414 34.33 71.947 34.33 55s6.337-32.414 16.772-44.16"/><path fill="url(#c)" d="M10.2 55q0-1.745.13-3.458.351-.322.709-.64A45 45 0 0 0 10.85 55c0 24.493 19.856 44.348 44.348 44.348 24.493 0 44.348-19.855 44.348-44.348q-.001-2.073-.188-4.098.357.318.709.64.13 1.713.131 3.458c0 24.853-20.147 45-45 45s-45-20.147-45-45m.213-4.412C12.63 27.806 31.835 10 55.2 10s42.568 17.806 44.786 40.588q-.36-.323-.723-.639C96.756 27.835 77.985 10.652 55.2 10.652S13.643 27.835 11.136 49.95q-.363.315-.723.638m.626.314q.043-.477.097-.953C22.931 39.69 38.34 33.48 55.2 33.48s32.268 6.212 44.063 16.47q.054.476.097.953C87.613 40.468 72.146 34.13 55.2 34.13s-32.414 6.338-44.16 16.772"/><path fill="url(#d)" d="M10.2 55q0 1.745.13 3.458.351.322.709.64A45 45 0 0 1 10.85 55c0-24.493 19.856-44.348 44.348-44.348 24.493 0 44.348 19.855 44.348 44.348q-.001 2.073-.188 4.098.357-.318.709-.64.13-1.713.131-3.458c0-24.853-20.147-45-45-45s-45 20.147-45 45m.213 4.412C12.63 82.194 31.835 100 55.2 100s42.568-17.806 44.786-40.588q-.36.323-.723.639C96.756 82.165 77.985 99.348 55.2 99.348S13.643 82.165 11.136 60.05q-.363-.316-.723-.639m.626-.314q.043.477.097.953C22.931 70.31 38.34 76.52 55.2 76.52s32.268-6.212 44.063-16.47q.054-.476.097-.953C87.613 69.532 72.146 75.87 55.2 75.87s-32.414-6.338-44.16-16.772"/><circle cx="55.526" cy="54.674" r="36.196" fill="url(#e)"/><circle cx="42.717" cy="42.717" r="42.717" fill="url(#f)" opacity=".4" transform="matrix(-1 0 0 1 98.242 11.957)"/><path fill="url(#g)" d="M55.199 10h.652v90h-.652z"/><path fill="url(#h)" d="M10.525 55.326h.652v90h-.652z" transform="rotate(-90 10.525 55.326)"/><defs><linearGradient id="a" x1="100.199" x2="10.199" y1="55" y2="55" gradientUnits="userSpaceOnUse"><stop stop-color="#fff"/><stop offset="1" stop-opacity="0"/></linearGradient><linearGradient id="b" x1="10.199" x2="100.199" y1="55" y2="55" gradientUnits="userSpaceOnUse"><stop stop-color="#fff"/><stop offset="1" stop-opacity="0"/></linearGradient><linearGradient id="c" x1="100.199" x2="10.199" y1="55" y2="55" gradientUnits="userSpaceOnUse"><stop stop-color="#fff"/><stop offset="1" stop-opacity="0"/></linearGradient><linearGradient id="d" x1="55.199" x2="55.199" y1="10" y2="100" gradientUnits="userSpaceOnUse"><stop stop-color="#fff"/><stop offset="1" stop-opacity="0"/></linearGradient><linearGradient id="e" x1="89.761" x2="48.356" y1="32.464" y2="86.667" gradientUnits="userSpaceOnUse"><stop stop-color="#fff"/><stop offset="1" stop-opacity="0"/></linearGradient><linearGradient id="f" x1="95.543" x2="19.891" y1="77.935" y2="11.413" gradientUnits="userSpaceOnUse"><stop stop-color="#fff"/><stop offset="1" stop-opacity="0"/></linearGradient><linearGradient id="g" x1="55.525" x2="55.525" y1="10" y2="100" gradientUnits="userSpaceOnUse"><stop stop-color="#fff" stop-opacity="0"/><stop offset=".5" stop-color="#fff"/><stop offset="1" stop-color="#fff" stop-opacity="0"/></linearGradient><linearGradient id="h" x1="10.851" x2="10.851" y1="55.326" y2="145.326" gradientUnits="userSpaceOnUse"><stop stop-color="#fff" stop-opacity="0"/><stop offset=".5" stop-color="#fff"/><stop offset="1" stop-color="#fff" stop-opacity="0"/></linearGradient></defs></svg>