<svg width="240" height="40" viewBox="0 0 240 40" fill="none" xmlns="http://www.w3.org/2000/svg">
<path d="M174.027 7.5817V18.0392H167.791V13.8562H158.958V22.7451H174.027V29.0196H152.722V7.5817H174.027Z" fill="white"/>
<path d="M206.234 7.5817V18.0392H199.999V13.8562H191.165V29.0196H184.93V7.5817H206.234Z" fill="white"/>
<path d="M141.819 29.0196H120.515V22.7451H135.584V18.5621H141.819V29.0196Z" fill="white"/>
<path d="M141.819 13.8562H126.751V18.0392H120.515V7.5817H141.819V13.8562Z" fill="white"/>
<path d="M39.4819 29.0196H33.2465L33.2465 0L39.4819 5.48535e-07L39.4819 29.0196Z" fill="white"/>
<path d="M223.372 22.7451H228.568V29.0196H217.137V7.5817H223.372V22.7451Z" fill="white"/>
<path d="M240 16.4706L233.765 22.7451H228.568V16.4706H233.765V7.5817H240V16.4706Z" fill="white"/>
<path d="M93.5041 22.7451H103.377V7.5817H109.612V33.7255L103.377 40H87.2687V33.7255H103.377V29.0196H87.2687V7.5817H93.5041V22.7451Z" fill="white"/>
<path fill-rule="evenodd" clip-rule="evenodd" d="M72.7283 22.7451H76.3657V29.0196H56.6203L50.3849 22.7451V7.5817H72.7283V22.7451ZM56.6203 22.7451H66.493V13.8562H56.6203V22.7451Z" fill="white"/>
<path fill-rule="evenodd" clip-rule="evenodd" d="M22.3435 22.7451L16.1081 29.0196H6.23538V36.3399H0V7.5817H22.3435V22.7451ZM6.23538 22.7451H16.1081V13.8562H6.23538V22.7451Z" fill="white"/>
</svg>
