<svg width="20" height="20" viewBox="0 0 20 20" fill="none" xmlns="http://www.w3.org/2000/svg">
<path fill-rule="evenodd" clip-rule="evenodd" d="M13.0892 8.03012C12.9025 7.67172 12.5626 7.45816 12.1806 7.45816H8.97902V3.63256C8.97902 3.12616 8.67589 2.69096 8.22358 2.55096C7.79233 2.41496 7.34389 2.58616 7.08374 2.98376L2.69233 9.71412C2.45796 10.0725 2.43608 10.5325 2.63608 10.9157C2.8228 11.2749 3.16264 11.4885 3.54468 11.4885H6.74624V15.3141C6.74624 15.8213 7.05014 16.2565 7.50171 16.3965C7.60014 16.4277 7.70014 16.4421 7.7978 16.4421C8.12905 16.4421 8.44233 16.2709 8.64386 15.9637L13.0353 9.23412C13.2689 8.87412 13.29 8.41332 13.0892 8.03012Z" fill="white"/>
<path opacity="0.4" fill-rule="evenodd" clip-rule="evenodd" d="M12.832 4.63604H16.9516C17.275 4.63604 17.5375 4.36724 17.5375 4.03604C17.5375 3.70484 17.275 3.43604 16.9516 3.43604H12.832C12.5086 3.43604 12.2461 3.70484 12.2461 4.03604C12.2461 4.36724 12.5086 4.63604 12.832 4.63604Z" fill="white"/>
<path opacity="0.4" fill-rule="evenodd" clip-rule="evenodd" d="M16.9516 8.87354H15.1445C14.8211 8.87354 14.5586 9.14234 14.5586 9.47354C14.5586 9.80474 14.8211 10.0735 15.1445 10.0735H16.9516C17.275 10.0735 17.5375 9.80474 17.5375 9.47354C17.5375 9.14234 17.275 8.87354 16.9516 8.87354Z" fill="white"/>
<path opacity="0.4" fill-rule="evenodd" clip-rule="evenodd" d="M16.9516 14.3081H12.832C12.5086 14.3081 12.2461 14.5768 12.2461 14.9081C12.2461 15.2393 12.5086 15.5081 12.832 15.5081H16.9516C17.275 15.5081 17.5375 15.2393 17.5375 14.9081C17.5375 14.5768 17.275 14.3081 16.9516 14.3081Z" fill="white"/>
</svg>
