<svg width="24" height="24" viewBox="0 0 24 24" fill="none" xmlns="http://www.w3.org/2000/svg">
<path fill-rule="evenodd" clip-rule="evenodd" d="M6.18164 6.9873H17.8186C18.2326 6.9873 18.5686 6.6513 18.5686 6.2373C18.5686 5.8233 18.2326 5.4873 17.8186 5.4873H6.18164C5.76764 5.4873 5.43164 5.8233 5.43164 6.2373C5.43164 6.6513 5.76764 6.9873 6.18164 6.9873Z" fill="white"/>
<path fill-rule="evenodd" clip-rule="evenodd" d="M8.71875 3.875H15.2808C15.6958 3.875 16.0308 3.539 16.0308 3.125C16.0308 2.711 15.6958 2.375 15.2808 2.375H8.71875C8.30475 2.375 7.96875 2.711 7.96875 3.125C7.96875 3.539 8.30475 3.875 8.71875 3.875Z" fill="white"/>
<path opacity="0.4" fill-rule="evenodd" clip-rule="evenodd" d="M17.2372 8.83984H6.76222C4.66022 8.83984 2.94922 10.5508 2.94922 12.6528V17.8088C2.94922 19.9118 4.66022 21.6228 6.76222 21.6228H17.2372C19.3402 21.6228 21.0502 19.9118 21.0502 17.8088V12.6528C21.0502 10.5508 19.3402 8.83984 17.2372 8.83984Z" fill="white"/>
</svg>
