<svg width="24" height="24" viewBox="0 0 24 24" fill="none" xmlns="http://www.w3.org/2000/svg">
<path opacity="0.4" d="M12.3612 6.83521H15.1904C19.0321 6.83521 22.1562 9.97555 22.1562 13.8352C22.1562 17.6948 19.0321 20.8352 15.1904 20.8352H8.12213C4.28038 20.8352 1.15625 17.6948 1.15625 13.8352C1.15625 9.97555 4.28038 6.83521 8.12213 6.83521H10.9522H12.3612Z" fill="white"/>
<path d="M12.1562 6.83521V6.52013C12.1503 5.14485 11.0874 4.02217 9.78374 4.01764H8.91495C8.64393 4.01764 8.42272 3.79129 8.42272 3.51425V2.83521H7.15625V3.51425C7.15625 4.54005 7.94568 5.37572 8.91495 5.37572H9.7812C10.39 5.37753 10.8873 5.89451 10.8898 6.52375V6.83521H12.1562Z" fill="white"/>
<path d="M11.1562 14.0643H9.37534V15.8352H7.9391V14.0643H6.15625V12.6071H7.9391V10.8352H9.37534V12.6071H11.1562V14.0643Z" fill="white"/>
<path d="M15.1562 12.8352H14.1562V11.8352H15.1562V12.8352Z" fill="white"/>
<path d="M17.1562 15.8352H15.1562V14.8352H17.1562V15.8352Z" fill="white"/>
</svg>
