<svg width="20" height="20" viewBox="0 0 20 20" fill="none" xmlns="http://www.w3.org/2000/svg">
<path fill-rule="evenodd" clip-rule="evenodd" d="M10.6307 13.0777C10.6307 13.4227 10.3507 13.7027 10.0057 13.7027C9.66065 13.7027 9.38065 13.4227 9.38065 13.0777V9.49516C9.38065 9.15016 9.66065 8.87016 10.0057 8.87016C10.3507 8.87016 10.6307 9.15016 10.6307 9.49516V13.0777ZM9.37565 6.90933C9.37565 6.56433 9.65565 6.28433 10.0007 6.28433C10.3457 6.28433 10.6257 6.56433 10.6257 6.90933C10.6257 7.25433 10.3457 7.561 10.0007 7.561C9.65565 7.561 9.37565 7.30683 9.37565 6.96183V6.90933ZM10.0007 2.0835C5.63565 2.0835 2.08398 5.63433 2.08398 10.0002C2.08398 14.3652 5.63565 17.9168 10.0007 17.9168C14.3657 17.9168 17.9173 14.3652 17.9173 10.0002C17.9173 5.63433 14.3657 2.0835 10.0007 2.0835Z" fill="white"/>
</svg>
