<svg width="20" height="20" viewBox="0 0 20 20" fill="none" xmlns="http://www.w3.org/2000/svg">
<path opacity="0.4" fill-rule="evenodd" clip-rule="evenodd" d="M10.0007 2.08301C5.63565 2.08301 2.08398 5.63384 2.08398 9.99967C2.08398 14.3647 5.63565 17.9163 10.0007 17.9163C14.3657 17.9163 17.9173 14.3647 17.9173 9.99967C17.9173 5.63384 14.3657 2.08301 10.0007 2.08301Z" fill="#909296"/>
<path fill-rule="evenodd" clip-rule="evenodd" d="M10.63 13.0775C10.63 13.4225 10.35 13.7025 10.005 13.7025C9.66 13.7025 9.38 13.4225 9.38 13.0775V9.495C9.38 9.15 9.66 8.87 10.005 8.87C10.35 8.87 10.63 9.15 10.63 9.495V13.0775ZM9.375 6.90918C9.375 6.56418 9.655 6.28418 10 6.28418C10.345 6.28418 10.625 6.56418 10.625 6.90918C10.625 7.25418 10.345 7.56085 10 7.56085C9.655 7.56085 9.375 7.30668 9.375 6.96168V6.90918Z" fill="#909296"/>
</svg>
