<svg width="24" height="24" viewBox="0 0 24 24" fill="none" xmlns="http://www.w3.org/2000/svg">
<path d="M8.66536 4C6.0927 4 4 6.09464 4 8.66797V15.3346C4 17.9073 6.09464 20 8.66797 20H15.3346C17.9073 20 20 17.9054 20 15.332V8.66536C20 6.0927 17.9054 4 15.332 4H8.66536ZM16.6667 6.66667C17.0347 6.66667 17.3333 6.96533 17.3333 7.33333C17.3333 7.70133 17.0347 8 16.6667 8C16.2987 8 16 7.70133 16 7.33333C16 6.96533 16.2987 6.66667 16.6667 6.66667ZM12 8C14.206 8 16 9.794 16 12C16 14.206 14.206 16 12 16C9.794 16 8 14.206 8 12C8 9.794 9.794 8 12 8Z" fill="white"/>
</svg>
