<svg width="24" height="24" viewBox="0 0 24 24" fill="none" xmlns="http://www.w3.org/2000/svg">
<path d="M6.92 5C5.8096 5 5.00312 5.66542 5.00312 6.58062C5.00312 7.49902 5.8288 8.19375 6.92 8.19375C8.0304 8.19375 8.83687 7.51548 8.83687 6.56187C8.78567 5.64347 7.9952 5 6.92 5ZM5.32 8.83687C5.144 8.83687 5 8.98088 5 9.15688V18.4369C5 18.6129 5.144 18.7569 5.32 18.7569H8.52C8.696 18.7569 8.84 18.6129 8.84 18.4369V9.15688C8.84 8.98088 8.696 8.83687 8.52 8.83687H5.32ZM10.12 8.83687C9.944 8.83687 9.8 8.98088 9.8 9.15688V18.4369C9.8 18.6129 9.944 18.7569 10.12 18.7569H13C13.1766 18.7569 13.32 18.6135 13.32 18.4369V13.6369V13.5569V13.4769C13.32 12.7185 13.9026 12.1007 14.645 12.0431C14.6834 12.0367 14.7216 12.0369 14.76 12.0369C14.7984 12.0369 14.8366 12.0367 14.875 12.0431C15.6174 12.1007 16.2 12.7185 16.2 13.4769V18.4369C16.2 18.6135 16.3434 18.7569 16.52 18.7569H19.4C19.576 18.7569 19.72 18.6129 19.72 18.4369V12.9969C19.72 10.9265 18.6093 8.83687 16.1325 8.83687C15.0061 8.83687 14.1552 9.27215 13.64 9.63375V9.15688C13.64 8.98088 13.496 8.83687 13.32 8.83687H10.12Z" fill="white"/>
</svg>
