<svg width="20" height="20" viewBox="0 0 20 20" fill="none" xmlns="http://www.w3.org/2000/svg">
<g opacity="0.4">
<path fill-rule="evenodd" clip-rule="evenodd" d="M17.4398 2.70071C17.0148 2.42571 16.4898 2.38404 16.0232 2.59238L13.5232 3.70071C13.504 3.72988 13.484 3.76071 13.4648 3.79071V8.06738C13.6732 8.04238 13.8815 8.03404 14.0898 8.03404C15.479 8.03404 16.7457 8.5699 17.6873 9.4449C17.854 9.5999 18.1232 9.47824 18.1232 9.25157V3.95904C18.1232 3.45071 17.8648 2.98404 17.4398 2.70071Z" fill="white"/>
<path fill-rule="evenodd" clip-rule="evenodd" d="M6.4025 2.27831C5.79333 2.54748 3.195 3.69581 3.195 3.69581C2.39333 4.05331 1.875 4.85081 1.875 5.72915V16.2817C1.875 16.79 2.13 17.26 2.55583 17.5367C2.98167 17.8133 3.51167 17.855 3.97667 17.6483L6.475 16.5375C6.50833 16.5225 6.52917 16.49 6.52917 16.4542V2.36248C6.52917 2.29665 6.4625 2.25165 6.4025 2.27831Z" fill="white"/>
</g>
<path fill-rule="evenodd" clip-rule="evenodd" d="M12.2151 8.37533V3.85285C12.1951 3.82369 12.1801 3.80285 12.1593 3.77285C11.681 3.59952 8.54595 2.46619 7.89844 2.22535C7.8401 2.20869 7.77344 2.25035 7.77344 2.31702V16.3753C7.77344 16.417 7.79844 16.4503 7.83177 16.4587C8.01844 16.5262 8.66345 16.7603 9.40345 17.0278C9.71262 17.1395 9.99679 16.7828 9.80012 16.5187C9.14512 15.637 8.75679 14.5428 8.75679 13.3587C8.75679 11.0837 10.1985 9.13366 12.2151 8.37533Z" fill="white"/>
<path fill-rule="evenodd" clip-rule="evenodd" d="M11.8301 13.3282C11.8301 12.084 12.8426 11.0715 14.0867 11.0715C15.3309 11.0715 16.3434 12.084 16.3434 13.3282C16.3434 14.5732 15.3309 15.5857 14.0867 15.5857C12.8426 15.5857 11.8301 14.5732 11.8301 13.3282ZM16.8976 15.404C17.3292 14.8215 17.5934 14.1074 17.5934 13.3282C17.5934 11.3949 16.0201 9.82153 14.0867 9.82153C12.1534 9.82153 10.5801 11.3949 10.5801 13.3282C10.5801 15.2624 12.1534 16.8357 14.0867 16.8357C14.7901 16.8357 15.4417 16.6232 15.9917 16.2657L17.0567 17.329C17.1784 17.4499 17.3384 17.5115 17.4984 17.5115C17.6584 17.5115 17.8192 17.4499 17.9409 17.3274C18.1842 17.0832 18.1842 16.6874 17.9392 16.4432L16.8976 15.404Z" fill="white"/>
</svg>
