<svg width="20" height="20" viewBox="0 0 20 20" fill="none" xmlns="http://www.w3.org/2000/svg">
<g opacity="0.4">
<path d="M12.131 8.26564C11.9302 8.26564 11.7318 8.16897 11.6118 7.98981C9.65434 5.08147 11.3827 2.65064 11.4568 2.54897C11.6602 2.26981 12.0502 2.20814 12.3302 2.41314C12.6077 2.61564 12.6693 3.00481 12.4685 3.28314C12.4143 3.35981 11.1935 5.12897 12.6485 7.29147C12.8418 7.57814 12.766 7.96647 12.4793 8.15897C12.3718 8.23064 12.251 8.26564 12.131 8.26564Z" fill="white"/>
<path d="M18.4861 16.1513L17.3777 12.6596L15.6861 7.35132C15.7527 7.77632 15.6777 8.26798 15.4861 8.79296C15.3944 9.07629 15.2611 9.36796 15.1111 9.65963C14.6277 10.5846 13.9111 11.5596 13.1111 12.4096C12.2444 13.3346 11.3111 14.1096 10.4277 14.6346C10.4011 14.6499 10.3739 14.6656 10.3466 14.6814C10.2543 14.7348 10.1594 14.7897 10.0694 14.8346C9.89439 14.9263 9.72773 15.0013 9.56939 15.0596C9.10273 15.2513 8.71939 15.3263 8.40273 15.3263C8.16107 15.3263 7.9694 15.2846 7.80273 15.218C7.8444 15.243 7.88607 15.2596 7.92773 15.268L12.0611 16.3596L17.0444 17.668C17.1444 17.693 17.2444 17.7096 17.3444 17.7096C17.6694 17.7096 17.9861 17.5763 18.2111 17.3346C18.5111 17.018 18.6194 16.5596 18.4861 16.1513Z" fill="white"/>
<path d="M2.47852 5.72949C2.47852 6.07449 2.76852 6.35449 3.11352 6.35449C3.45852 6.35449 3.73852 6.07449 3.73852 5.72949C3.73852 5.38449 3.45852 5.10449 3.11352 5.10449H3.09435C2.74935 5.10449 2.47852 5.38449 2.47852 5.72949Z" fill="white"/>
</g>
<path d="M7.53599 3.9126C6.95016 3.9126 6.47266 4.38926 6.47266 4.9751C6.47266 5.5626 6.95016 6.0401 7.53599 6.0401C8.12266 6.0401 8.60016 5.5626 8.60016 4.9751C8.60016 4.38926 8.12266 3.9126 7.53599 3.9126Z" fill="white"/>
<path d="M5.36156 14.9023C5.01656 14.9023 4.72656 14.6223 4.72656 14.2773C4.72656 13.9323 4.9974 13.6523 5.3424 13.6523H5.36156C5.70656 13.6523 5.98656 13.9323 5.98656 14.2773C5.98656 14.6223 5.70656 14.9023 5.36156 14.9023Z" fill="white"/>
<path fill-rule="evenodd" clip-rule="evenodd" d="M8.84895 9.85924C8.18769 10.6763 7.66008 11.5081 7.3269 12.2687C7.04356 12.9104 6.94356 13.4187 6.94356 13.8187C6.94356 14.3854 7.1519 14.7437 7.38523 14.9604C7.64701 15.2222 8.04081 15.3271 8.40186 15.3271C8.71853 15.3271 9.10186 15.2521 9.56853 15.0604C9.72686 15.0021 9.89353 14.9271 10.0685 14.8354C10.1585 14.7904 10.2534 14.7356 10.3456 14.6822C10.3729 14.6664 10.4003 14.6507 10.4269 14.6354C11.3102 14.1104 12.2435 13.3354 13.1102 12.4104C13.9102 11.5604 14.6269 10.5854 15.1102 9.6604C15.2602 9.36874 15.3935 9.07707 15.4852 8.79374C15.6769 8.26873 15.7519 7.77706 15.6852 7.35206C15.6519 7.1354 15.5852 6.94373 15.4685 6.76873C15.4185 6.67706 15.3435 6.59373 15.2602 6.51873C14.8602 6.15206 14.0769 5.86873 12.5769 6.65206C11.6585 7.123 10.6441 7.91922 9.7077 8.88757C8.40328 8.22025 6.43782 7.66531 4.00888 8.35632C3.67721 8.45049 3.48388 8.79632 3.57888 9.12799C3.67305 9.45965 4.01805 9.65382 4.35055 9.55799C6.22498 9.02582 7.76735 9.3719 8.84895 9.85924ZM9.49353 13.7271C10.3435 13.2771 11.3102 12.5104 12.1935 11.5521C13.8602 9.76874 14.4435 8.26873 14.4685 7.6854C14.4685 7.51892 14.4324 7.40206 14.2435 7.40206C14.0519 7.40206 13.7102 7.46873 13.1519 7.7604C12.4124 8.14468 11.5908 8.77499 10.8024 9.56357C11.2119 9.86515 11.4448 10.1004 11.4772 10.1338C11.7172 10.3813 11.7105 10.7772 11.4622 11.018C11.3414 11.1355 11.1847 11.1938 11.028 11.1938C10.8655 11.1938 10.7022 11.1305 10.5797 11.0047C10.5484 10.9727 10.3319 10.7573 9.9527 10.4893C9.29903 11.2685 8.78545 12.0645 8.47686 12.7687C8.24134 13.3064 8.18829 13.649 8.19401 13.8429C8.19903 14.0137 8.23845 14.0771 8.4102 14.0771C8.46853 14.0771 8.55186 14.0687 8.65186 14.0521C8.85186 14.0104 9.12686 13.9187 9.49353 13.7271Z" fill="white"/>
<path d="M15.5669 14.885C16.2336 14.1683 16.8503 13.4183 17.3753 12.66L16.8919 11.1433C16.8669 11.1683 16.8503 11.185 16.8336 11.21C16.2503 12.1516 15.5003 13.1266 14.6586 14.035C13.8169 14.935 12.9336 15.7183 12.1169 16.31C12.0919 16.3266 12.0753 16.3433 12.0586 16.36L13.5836 16.76C14.2419 16.2183 14.9169 15.5766 15.5669 14.885Z" fill="white"/>
<path d="M2.49108 13.5111C2.61191 13.6227 2.76358 13.6777 2.91608 13.6777C3.08358 13.6777 3.25108 13.6102 3.37525 13.4769C4.46275 12.3011 5.68525 12.3536 5.74608 12.3586C6.08441 12.3927 6.38608 12.1261 6.41191 11.7836C6.43858 11.4394 6.18108 11.1386 5.83691 11.1119C5.75941 11.1052 3.97525 10.9869 2.45691 12.6286C2.22275 12.8811 2.23858 13.2769 2.49108 13.5111Z" fill="white"/>
</svg>
