<svg width="24" height="24" viewBox="0 0 24 24" fill="none" xmlns="http://www.w3.org/2000/svg">
<path fill-rule="evenodd" clip-rule="evenodd" d="M19.0428 6.39765C19.8138 6.61176 20.4217 7.23882 20.6292 8.03412C21.0147 9.48706 20.9999 12.5153 20.9999 12.5153C20.9999 12.5153 20.9999 15.5282 20.6292 16.9812C20.4217 17.7765 19.8138 18.4035 19.0428 18.6176C17.6342 19 12 19 12 19C12 19 6.38055 19 4.95716 18.6024C4.18616 18.3882 3.57825 17.7612 3.37067 16.9659C3 15.5282 3 12.5 3 12.5C3 12.5 3 9.48706 3.37067 8.03412C3.57825 7.23882 4.20098 6.59647 4.95716 6.38235C6.36572 6 12 6 12 6C12 6 17.6342 6 19.0428 6.39765ZM14.8912 12.5L10.2059 15.2835V9.71645L14.8912 12.5Z" fill="white"/>
</svg>
